<?xml version="1.0" encoding="UTF-8" standalone="no"?>
<svg
   xmlns:dc="http://purl.org/dc/elements/1.1/"
   xmlns:cc="http://creativecommons.org/ns#"
   xmlns:rdf="http://www.w3.org/1999/02/22-rdf-syntax-ns#"
   xmlns:svg="http://www.w3.org/2000/svg"
   xmlns="http://www.w3.org/2000/svg"
   xmlns:xlink="http://www.w3.org/1999/xlink"
   xmlns:sodipodi="http://sodipodi.sourceforge.net/DTD/sodipodi-0.dtd"
   xmlns:inkscape="http://www.inkscape.org/namespaces/inkscape"
   width="297mm"
   height="210mm"
   viewBox="0 0 297 210"
   version="1.1"
   id="svg1433"
   inkscape:version="1.0 (4035a4fb49, 2020-05-01)"
   sodipodi:docname="layout.svg">
  <defs
     id="defs1427">
    <linearGradient
       gradientTransform="matrix(1.0941138,0,0,0.72308677,-326.53067,-195.25208)"
       gradientUnits="userSpaceOnUse"
       y2="154.99687"
       x2="292.67374"
       y1="154.99687"
       x1="176.215"
       id="linearGradient845"
       xlink:href="#linearGradient843"
       inkscape:collect="always" />
    <linearGradient
       id="linearGradient843"
       inkscape:collect="always">
      <stop
         id="stop839"
         offset="0"
         style="stop-color:#000000;stop-opacity:1;" />
      <stop
         id="stop841"
         offset="1"
         style="stop-color:#000000;stop-opacity:0;" />
    </linearGradient>
  </defs>
  <sodipodi:namedview
     id="base"
     pagecolor="#ffffff"
     bordercolor="#666666"
     borderopacity="1.0"
     inkscape:pageopacity="0.0"
     inkscape:pageshadow="2"
     inkscape:zoom="2.8"
     inkscape:cx="404.81342"
     inkscape:cy="317.31661"
     inkscape:document-units="mm"
     inkscape:current-layer="layer1"
     inkscape:document-rotation="0"
     showgrid="false"
     inkscape:window-width="1624"
     inkscape:window-height="1020"
     inkscape:window-x="38"
     inkscape:window-y="0"
     inkscape:window-maximized="0" />
  <metadata
     id="metadata1430">
    <rdf:RDF>
      <cc:Work
         rdf:about="">
        <dc:format>image/svg+xml</dc:format>
        <dc:type
           rdf:resource="http://purl.org/dc/dcmitype/StillImage" />
        <dc:title />
      </cc:Work>
    </rdf:RDF>
  </metadata>
  <g
     inkscape:label="Layer 1"
     inkscape:groupmode="layer"
     id="layer1">
    <rect
       y="-84.920776"
       x="-133.18439"
       height="3.4897976"
       width="126.32499"
       id="rect833"
       style="opacity:1;fill:#666666;stroke:url(#linearGradient845);stroke-width:0.889466;stroke-linejoin:round;stroke-miterlimit:4;stroke-dasharray:none;paint-order:markers stroke fill"
       transform="rotate(179.97678)" />
    <path
       sodipodi:nodetypes="cccc"
       d="m 126.1505,98.816955 0.0979,-14.055666 6.97039,0.105505 z"
       inkscape:transform-center-y="-0.046472339"
       inkscape:transform-center-x="-1.25551"
       style="opacity:1;fill:#333333;stroke:#000000;stroke-width:0.173761;stroke-linejoin:round;stroke-miterlimit:4;stroke-dasharray:none;paint-order:markers stroke fill"
       id="path847" />
    <rect
       y="-135.92163"
       x="-282.14722"
       height="2.2310097"
       width="232.41531"
       id="rect865"
       style="opacity:1;fill:#4d4d4d;stroke:#000000;stroke-width:0.651002;stroke-linejoin:round;stroke-miterlimit:4;stroke-dasharray:none;paint-order:markers stroke fill"
       transform="matrix(-0.99999995,3.2426764e-4,-5.0649542e-4,-0.99999987,0,0)" />
    <rect
       y="-147.07668"
       x="-281.57123"
       height="11.155047"
       width="231.83932"
       id="rect867"
       style="opacity:1;fill:#999999;stroke:#000000;stroke-width:0.651002;stroke-linejoin:round;stroke-miterlimit:4;stroke-dasharray:none;paint-order:markers stroke fill"
       transform="matrix(-0.99999995,3.2426764e-4,-5.0649542e-4,-0.99999987,0,0)" />
    <rect
       y="-165.12758"
       x="-58.65984"
       height="18.050896"
       width="8.9279623"
       id="rect869"
       style="opacity:1;fill:#999999;stroke:#000000;stroke-width:0.651002;stroke-linejoin:round;stroke-miterlimit:4;stroke-dasharray:none;paint-order:markers stroke fill"
       transform="matrix(-0.99999995,3.2426764e-4,-5.0649542e-4,-0.99999987,0,0)" />
    <rect
       y="-165.3304"
       x="-281.2832"
       height="17.848078"
       width="8.9279747"
       id="rect871"
       style="opacity:1;fill:#999999;stroke:#000000;stroke-width:0.651002;stroke-linejoin:round;stroke-miterlimit:4;stroke-dasharray:none;paint-order:markers stroke fill"
       transform="matrix(-0.99999995,3.2426764e-4,-5.0649542e-4,-0.99999987,0,0)" />
    <path
       d="m 23.461486,81.576974 c 1.97337,-8e-4 3.561362,-1.748953 3.560482,-3.919583 l -0.0058,-14.247419 c -8.8e-4,-2.17062 -1.590288,-3.917486 -3.563658,-3.916686 l -7.447969,0.003 c -1.97337,8e-4 -3.561371,1.748953 -3.560492,3.919573 l 0.0058,14.247419 c 8.8e-4,2.17063 1.590298,3.917496 3.563668,3.916696 z m 0.314761,-22.350959 -3.61e-4,-0.89049 -8.095619,0.0033 3.61e-4,0.89049 z"
       style="opacity:1;fill:#c3ffff;fill-opacity:1;stroke:#000000;stroke-width:0.646864;stroke-linejoin:round;stroke-miterlimit:4;stroke-dasharray:none;stroke-opacity:1;paint-order:markers stroke fill"
       id="aceticacidcontainer" />
    <rect
       y="-58.033539"
       x="-25.371254"
       height="1.1576182"
       width="11.252789"
       id="aceticacidlid"
       style="opacity:1;fill:#280b0b;fill-opacity:1;stroke:#000000;stroke-width:0.646864;stroke-linejoin:round;stroke-miterlimit:4;stroke-dasharray:none;stroke-opacity:1;paint-order:markers stroke fill"
       transform="rotate(179.97678)" />
    <path
       id="phenolcontainer"
       style="opacity:1;fill:#c3ffff;fill-opacity:1;stroke:#000000;stroke-width:0.646864;stroke-linejoin:round;stroke-miterlimit:4;stroke-dasharray:none;stroke-opacity:1;paint-order:markers stroke fill"
       d="m 43.700219,81.457511 c 1.97338,-8e-4 3.561362,-1.748953 3.560482,-3.919583 l -0.0058,-14.247409 c -8.79e-4,-2.17063 -1.590277,-3.917496 -3.563657,-3.916696 l -7.44797,0.003 c -1.97337,8e-4 -3.561371,1.748953 -3.560491,3.919583 l 0.0058,14.247409 c 8.8e-4,2.17063 1.590298,3.917496 3.563668,3.916696 z m 0.314771,-22.350959 -3.61e-4,-0.89048 -8.095629,0.0033 3.61e-4,0.89048 z" />
    <rect
       style="opacity:1;fill:#280b0b;fill-opacity:1;stroke:#000000;stroke-width:0.646864;stroke-linejoin:round;stroke-miterlimit:4;stroke-dasharray:none;stroke-opacity:1;paint-order:markers stroke fill"
       id="phenollid"
       width="11.252789"
       height="1.1576182"
       x="-45.610054"
       y="-57.922287"
       transform="rotate(179.97678)" />
    <rect
       style="opacity:1;fill:#280b0b;fill-opacity:1;stroke:#000000;stroke-width:0.646864;stroke-linejoin:round;stroke-miterlimit:4;stroke-dasharray:none;stroke-opacity:1;paint-order:markers stroke fill"
       id="H2SO4lid"
       width="11.252789"
       height="1.1576182"
       x="-65.120262"
       y="-57.387985"
       transform="rotate(179.97678)" />
    <path
       id="formaldehydeconatiner"
       style="opacity:1;fill:#c3ffff;fill-opacity:1;stroke:#000000;stroke-width:0.646864;stroke-linejoin:round;stroke-miterlimit:4;stroke-dasharray:none;stroke-opacity:1;paint-order:markers stroke fill"
       d="m 82.882453,81.08544 c 1.97338,-8e-4 3.56136,-1.748953 3.56048,-3.919583 l -0.006,-14.247409 c -8.8e-4,-2.17062 -1.59028,-3.917496 -3.56366,-3.916696 l -7.447971,0.003 c -1.97337,8e-4 -3.561372,1.748963 -3.560492,3.919583 l 0.0058,14.247409 c 8.8e-4,2.17063 1.590298,3.917496 3.563668,3.916696 z m 0.31477,-22.350959 -3.6e-4,-0.89049 -8.09563,0.0033 3.6e-4,0.89049 z" />
    <rect
       style="opacity:1;fill:#280b0b;fill-opacity:1;stroke:#000000;stroke-width:0.646864;stroke-linejoin:round;stroke-miterlimit:4;stroke-dasharray:none;stroke-opacity:1;paint-order:markers stroke fill"
       id="formaldehydelid"
       width="11.252789"
       height="1.1576182"
       x="-84.792412"
       y="-57.566101"
       transform="rotate(179.97678)" />
    <rect
       ry="3.383805"
       y="-81.052307"
       x="-47.310127"
       height="13.535229"
       width="14.814822"
       id="phenol"
       style="opacity:0.677316;fill:#ececec;fill-opacity:1;stroke:#000000;stroke-width:0.646864;stroke-linejoin:round;stroke-miterlimit:4;stroke-dasharray:none;stroke-opacity:1;paint-order:markers stroke fill"
       transform="rotate(179.97678)" />
    <path
       d="m 63.210367,81.249263 c 1.97338,-7.99e-4 3.561361,-1.748953 3.560481,-3.919573 l -0.0058,-14.247419 c -8.8e-4,-2.17063 -1.590278,-3.917496 -3.563658,-3.916696 l -7.447969,0.003 c -1.97337,8e-4 -3.561372,1.748954 -3.560492,3.919583 l 0.0058,14.247419 c 8.79e-4,2.17062 1.590297,3.917486 3.563667,3.916686 z m 0.314771,-22.350969 -3.61e-4,-0.89048 -8.09563,0.0033 3.61e-4,0.89048 z"
       style="opacity:1;fill:#c3ffff;fill-opacity:1;stroke:#000000;stroke-width:0.646864;stroke-linejoin:round;stroke-miterlimit:4;stroke-dasharray:none;stroke-opacity:1;paint-order:markers stroke fill"
       id="H2SO4container" />
    <path
       sodipodi:nodetypes="ssssssscs"
       d="m 64.905329,81.056876 -10.185228,0.106829 c -0.112109,0.001 -2.488929,-2.391262 -2.490389,-2.514581 L 52.114467,68.96525 c -0.0011,-0.12332 0.09021,-0.222657 0.2023,-0.222702 l 14.086219,-0.0057 c 0.112129,-4.5e-5 0.20152,0.09922 0.20249,0.222538 l 0.07553,9.693951 c 0,0 -1.663517,2.402374 -1.775626,2.403549 z"
       style="opacity:0.153355;fill:#008bff;fill-opacity:1;stroke:#000000;stroke-width:0.646864;stroke-linejoin:round;stroke-miterlimit:4;stroke-dasharray:none;stroke-opacity:1;paint-order:markers stroke fill"
       id="H2SO4" />
    <path
       id="aceticacid"
       style="opacity:0.153355;fill:#008bff;fill-opacity:1;stroke:#000000;stroke-width:0.646864;stroke-linejoin:round;stroke-miterlimit:4;stroke-dasharray:none;stroke-opacity:1;paint-order:markers stroke fill"
       d="m 25.161089,81.362365 -10.185217,0.106829 c -0.11212,0.001 -2.48894,-2.391262 -2.4904,-2.514581 l -0.115245,-9.683864 c -10e-4,-0.12333 0.09021,-0.222667 0.2023,-0.222712 l 14.086219,-0.0057 c 0.11213,-4.5e-5 0.20152,0.09922 0.20248,0.222548 l 0.07553,9.69395 c 0,0 -1.663506,2.402365 -1.775626,2.40354 z"
       sodipodi:nodetypes="ssssssscs" />
    <path
       id="formaldehyde"
       style="opacity:0.153355;fill:#008bff;fill-opacity:1;stroke:#000000;stroke-width:0.646864;stroke-linejoin:round;stroke-miterlimit:4;stroke-dasharray:none;stroke-opacity:1;paint-order:markers stroke fill"
       d="m 84.581973,80.536851 -10.185221,0.106828 c -0.112119,10e-4 -2.488939,-2.391251 -2.490399,-2.51458 l -0.115245,-9.683864 c -0.0011,-0.12333 0.09021,-0.222657 0.20231,-0.222702 l 14.086215,-0.0057 c 0.11212,-4.5e-5 0.20151,0.09922 0.20247,0.222538 l 0.0755,9.69395 c 0,0 -1.6635,2.402365 -1.77562,2.40354 z"
       sodipodi:nodetypes="ssssssscs" />
    <rect
       y="-74.997086"
       x="-25.371254"
       height="2.9385715"
       width="11.57662"
       id="aceticacidsticker"
       style="opacity:0.677316;fill:#ececec;fill-opacity:1;stroke:#000000;stroke-width:0.646864;stroke-linejoin:round;stroke-miterlimit:4;stroke-dasharray:none;stroke-opacity:1;paint-order:markers stroke fill"
       transform="rotate(179.97678)" />
    <rect
       style="opacity:0.677316;fill:#ececec;fill-opacity:1;stroke:#000000;stroke-width:0.646864;stroke-linejoin:round;stroke-miterlimit:4;stroke-dasharray:none;stroke-opacity:1;paint-order:markers stroke fill"
       id="H2SO4sticker"
       width="11.57662"
       height="2.9385715"
       x="-65.079826"
       y="-76.55542"
       transform="rotate(179.97678)" />
    <rect
       style="opacity:0.677316;fill:#ececec;fill-opacity:1;stroke:#000000;stroke-width:0.646864;stroke-linejoin:round;stroke-miterlimit:4;stroke-dasharray:none;stroke-opacity:1;paint-order:markers stroke fill"
       id="formaldehydesticker"
       width="11.57662"
       height="2.9385715"
       x="-85.318657"
       y="-76.199234"
       transform="rotate(179.97678)" />
    <rect
       style="opacity:1;fill:#ececec;fill-opacity:1;stroke:#000000;stroke-width:0.646864;stroke-linejoin:round;stroke-miterlimit:4;stroke-dasharray:none;stroke-opacity:1;paint-order:markers stroke fill"
       id="Phenolsticker"
       width="11.57662"
       height="2.9385715"
       x="-45.326744"
       y="-76.377319"
       transform="rotate(179.97678)" />
    <text
       transform="matrix(0.96828808,0.0027718,-0.0025482,1.0327432,0,0)"
       id="aceticacidtext"
       y="71.811821"
       x="14.937969"
       style="font-style:normal;font-weight:normal;font-size:2.06563px;line-height:1.25;font-family:sans-serif;fill:#000000;fill-opacity:1;stroke:none;stroke-width:0.0516406"
       xml:space="preserve"><tspan
         style="stroke-width:0.0516406"
         y="71.811821"
         x="14.937969"
         id="tspan1025"
         sodipodi:role="line">Acetic Acid</tspan></text>
    <text
       xml:space="preserve"
       style="font-style:normal;font-weight:normal;font-size:2.12005px;line-height:1.25;font-family:sans-serif;fill:#000000;fill-opacity:1;stroke:none;stroke-width:0.0530011"
       x="38.492905"
       y="71.436775"
       id="Phenoltext"
       transform="matrix(0.94343648,0.00286522,-0.00246102,1.0599473,0,0)"><tspan
         sodipodi:role="line"
         id="tspan1025-3"
         x="38.492905"
         y="71.436775"
         style="stroke-width:0.0530011">Phenol</tspan></text>
    <text
       xml:space="preserve"
       style="font-style:normal;font-weight:normal;font-size:2.00895px;line-height:1.25;font-family:sans-serif;fill:#000000;fill-opacity:1;stroke:none;stroke-width:0.0502237"
       x="59.433971"
       y="69.014343"
       id="H2SO4text"
       transform="matrix(0.91060034,0.00299565,-0.00234492,1.0981689,0,0)"><tspan
         sodipodi:role="line"
         id="tspan1025-9"
         x="59.433971"
         y="69.014343"
         style="stroke-width:0.0502237">conc.H2SO4</tspan></text>
    <text
       xml:space="preserve"
       style="font-style:normal;font-weight:normal;font-size:1.6412px;line-height:1.25;font-family:sans-serif;fill:#000000;fill-opacity:1;stroke:none;stroke-width:0.04103"
       x="75.397263"
       y="73.629807"
       id="Formaldehydetext"
       transform="matrix(0.98056355,0.00272721,-0.00259105,1.0198145,0,0)"><tspan
         sodipodi:role="line"
         id="tspan1025-2"
         x="75.397263"
         y="73.629807"
         style="stroke-width:0.04103">Formaldehyde</tspan></text>
    <path
       d="m 105.57511,81.106513 -0.005,-12.912749 1.82172,-3.394399 -1.82311,-0.01956 -2e-5,-0.0445 -11.906931,0.0048 0.007,16.371249 z"
       style="opacity:1;fill:#b8ecec;fill-opacity:1;stroke:#000000;stroke-width:0.646864;stroke-linejoin:round;stroke-miterlimit:4;stroke-dasharray:none;stroke-opacity:1;paint-order:markers stroke fill"
       id="beaker" />
    <path
       id="liq"
       style="opacity:0.153355;fill:#0018ff;fill-opacity:1;stroke:none;stroke-width:0.225368;stroke-linejoin:round;stroke-miterlimit:4;stroke-dasharray:none;stroke-opacity:1;paint-order:markers stroke fill"
       d="m 103.93574,81.120657 -9.996431,-9.48e-4 c -0.0895,-4e-6 -0.24811,-0.32293 -0.24773,-0.34168 l 0.0318,-1.586743 c 2.6e-4,-0.0188 0.0721,-0.03363 0.16164,-0.03397 l 11.513021,-0.03847 c 0.0896,-2.36e-4 0.18196,0.03533 0.18192,0.05403 l -0.005,1.946713 c 0,0 -1.38236,0.01756 -1.43696,-0.0064 z"
       sodipodi:nodetypes="ssssssscss" />
    <rect
       style="opacity:1;fill:#000000;fill-opacity:1;stroke:none;stroke-width:0.646864;stroke-linejoin:round;stroke-miterlimit:4;stroke-dasharray:none;stroke-opacity:1;paint-order:markers stroke fill"
       id="line1"
       width="2.1585064"
       height="0.21880837"
       x="-105.54221"
       y="-68.455383"
       transform="rotate(179.97678)" />
    <rect
       style="opacity:1;fill:#000000;fill-opacity:1;stroke:none;stroke-width:0.546407;stroke-linejoin:round;stroke-miterlimit:4;stroke-dasharray:none;stroke-opacity:1;paint-order:markers stroke fill"
       id="line2"
       width="1.5401402"
       height="0.21880837"
       x="-105.77551"
       y="-71.0103"
       transform="rotate(179.97678)" />
    <rect
       style="opacity:1;fill:#000000;fill-opacity:1;stroke:none;stroke-width:0.690851;stroke-linejoin:round;stroke-miterlimit:4;stroke-dasharray:none;stroke-opacity:1;paint-order:markers stroke fill"
       id="line3"
       width="2.4620888"
       height="0.21880837"
       x="-105.74622"
       y="-74.037933"
       transform="rotate(179.97678)" />
    <rect
       style="opacity:1;fill:#000000;fill-opacity:1;stroke:none;stroke-width:0.560549;stroke-linejoin:round;stroke-miterlimit:4;stroke-dasharray:none;stroke-opacity:1;paint-order:markers stroke fill"
       id="line4"
       width="1.6209037"
       height="0.21880837"
       x="-105.85628"
       y="-76.776138"
       transform="rotate(179.97678)" />
    <path
       id="measuringcylinder"
       style="opacity:1;fill:#b8ecec;fill-opacity:1;stroke:#000000;stroke-width:0.34299;stroke-linejoin:round;stroke-miterlimit:4;stroke-dasharray:none;stroke-opacity:1;paint-order:markers stroke fill"
       d="m 120.13321,81.182832 -0.006,-15.506019 0.42518,-4.075392 -0.42685,-0.02433 -2e-5,-0.0534 -2.78774,0.0011 0.008,19.659179 z" />
    <path
       sodipodi:nodetypes="ssssssscss"
       d="m 119.74939,81.199178 -2.34043,-0.0051 c -0.0209,-4.1e-5 -0.0582,-0.387896 -0.0581,-0.410386 l 0.007,-1.905403 c 8e-5,-0.0225 0.017,-0.04031 0.0379,-0.04062 l 2.69549,-0.04159 c 0.0209,-2.49e-4 0.0427,0.04248 0.0427,0.06498 l -5e-5,2.337681 c 0,0 -0.32364,0.02043 -0.33645,-0.0079 z"
       style="opacity:0.153355;fill:#008bff;fill-opacity:1;stroke:#000000;stroke-width:0.119498;stroke-linejoin:round;stroke-miterlimit:4;stroke-dasharray:none;stroke-opacity:1;paint-order:markers stroke fill"
       id="liq2" />
    <rect
       y="-65.988251"
       x="-120.10029"
       height="0.26275209"
       width="0.50536531"
       id="line1-7"
       style="opacity:1;fill:#000000;fill-opacity:1;stroke:none;stroke-width:0.34299;stroke-linejoin:round;stroke-miterlimit:4;stroke-dasharray:none;stroke-opacity:1;paint-order:markers stroke fill"
       transform="rotate(179.97678)" />
    <rect
       y="-69.05629"
       x="-120.15491"
       height="0.26275209"
       width="0.36058891"
       id="line600"
       style="opacity:1;fill:#000000;fill-opacity:1;stroke:none;stroke-width:0.289721;stroke-linejoin:round;stroke-miterlimit:4;stroke-dasharray:none;stroke-opacity:1;paint-order:markers stroke fill"
       transform="rotate(179.97678)" />
    <rect
       y="-72.691956"
       x="-120.14807"
       height="0.26275209"
       width="0.57644236"
       id="line300"
       style="opacity:1;fill:#000000;fill-opacity:1;stroke:none;stroke-width:0.366313;stroke-linejoin:round;stroke-miterlimit:4;stroke-dasharray:none;stroke-opacity:1;paint-order:markers stroke fill"
       transform="rotate(179.97678)" />
    <rect
       y="-75.980103"
       x="-120.17383"
       height="0.26275209"
       width="0.37949789"
       id="line400"
       style="opacity:1;fill:#000000;fill-opacity:1;stroke:none;stroke-width:0.297222;stroke-linejoin:round;stroke-miterlimit:4;stroke-dasharray:none;stroke-opacity:1;paint-order:markers stroke fill"
       transform="rotate(179.97678)" />
    <rect
       style="opacity:1;fill:#000000;fill-opacity:1;stroke:none;stroke-width:0.297222;stroke-linejoin:round;stroke-miterlimit:4;stroke-dasharray:none;stroke-opacity:1;paint-order:markers stroke fill"
       id="line900"
       width="0.37949795"
       height="0.26275212"
       x="-120.18603"
       y="-77.597244"
       transform="rotate(179.97678)" />
    <rect
       style="opacity:1;fill:#000000;fill-opacity:1;stroke:none;stroke-width:0.297222;stroke-linejoin:round;stroke-miterlimit:4;stroke-dasharray:none;stroke-opacity:1;paint-order:markers stroke fill"
       id="line1000"
       width="0.37949795"
       height="0.26275212"
       x="-120.11089"
       y="-78.89592"
       transform="rotate(179.97678)" />
    <rect
       style="opacity:1;fill:#000000;fill-opacity:1;stroke:none;stroke-width:0.297222;stroke-linejoin:round;stroke-miterlimit:4;stroke-dasharray:none;stroke-opacity:1;paint-order:markers stroke fill"
       id="line800"
       width="0.37949795"
       height="0.26275212"
       x="-120.11376"
       y="-74.384567"
       transform="rotate(179.97678)" />
    <rect
       style="opacity:1;fill:#000000;fill-opacity:1;stroke:none;stroke-width:0.297222;stroke-linejoin:round;stroke-miterlimit:4;stroke-dasharray:none;stroke-opacity:1;paint-order:markers stroke fill"
       id="line700"
       width="0.37949795"
       height="0.26275212"
       x="-120.21464"
       y="-70.891357"
       transform="rotate(179.97678)" />
    <rect
       style="opacity:1;fill:#000000;fill-opacity:1;stroke:none;stroke-width:0.297222;stroke-linejoin:round;stroke-miterlimit:4;stroke-dasharray:none;stroke-opacity:1;paint-order:markers stroke fill"
       id="line500"
       width="0.37949795"
       height="0.26275212"
       x="-120.25848"
       y="-67.314545"
       transform="rotate(179.97678)" />
    <path
       d="m 92.208341,109.65554 a 1.5058555,6.3130277 89.982048 0 0 6.255415,-1.5079 1.5058555,6.3130277 89.982048 0 0 -6.313871,-1.50383 1.5058555,6.3130277 89.982048 0 0 -5.702921,0.86236 l -17.512145,0.006 5.09e-4,1.00391 17.084393,-0.006 a 1.5058555,6.3130277 89.982048 0 0 6.13169,1.14534 1.5058555,6.3130277 89.982048 0 0 0.05694,-2e-5 z"
       style="opacity:1;fill:#ac9393;fill-opacity:1;stroke:#000000;stroke-width:0.651004;stroke-linejoin:round;stroke-miterlimit:4;stroke-dasharray:none;stroke-opacity:1;paint-order:markers stroke fill"
       id="fancyspoon" />
    <path
       transform="matrix(-0.7757553,2.5158123e-4,-1.5828437e-4,-0.31247307,281.35456,140.78884)"
       inkscape:transform-center-y="-0.33783367"
       inkscape:transform-center-x="-0.10019949"
       d="m 239.47784,105.00536 8.27435,-0.44572 -3.75117,7.38865 z"
       inkscape:randomized="0"
       inkscape:rounded="0"
       inkscape:flatsided="true"
       sodipodi:arg2="-1.6246126"
       sodipodi:arg1="-2.6718102"
       sodipodi:r2="2.392061"
       sodipodi:r1="4.784122"
       sodipodi:cy="107.1711"
       sodipodi:cx="243.74368"
       sodipodi:sides="3"
       id="whitepowder"
       style="opacity:1;fill:#ececec;fill-opacity:1;stroke:#000000;stroke-width:1;stroke-linejoin:round;stroke-miterlimit:4;stroke-dasharray:none;stroke-opacity:1;paint-order:markers stroke fill"
       sodipodi:type="star" />
    <rect
       transform="matrix(0.99999864,0.00165138,-0.00157872,0.99999875,0,0)"
       style="fill:#e3dbdb;stroke:#000000;stroke-width:0.323548;stroke-miterlimit:4;stroke-dasharray:none;stroke-opacity:1"
       id="weighingmachine"
       width="42.641014"
       height="8.0267754"
       x="228.7491"
       y="122.12592"
       ry="0" />
    <rect
       transform="matrix(0.99999864,0.00165138,-0.00157872,0.99999875,0,0)"
       style="fill:#536c53;stroke:#000000;stroke-width:0.323548;stroke-miterlimit:4;stroke-dasharray:none;stroke-opacity:1"
       id="Display"
       width="22.02466"
       height="2.960597"
       x="238.30698"
       y="124.67763" />
    <rect
       transform="matrix(0.99999864,0.00165138,-0.00157872,0.99999875,0,0)"
       style="fill:#000000;stroke:#000000;stroke-width:0.323548;stroke-miterlimit:4;stroke-dasharray:none;stroke-opacity:1"
       id="stand2"
       width="2.258111"
       height="2.8235085"
       x="235.68312"
       y="130.14857" />
    <rect
       transform="matrix(0.99999864,0.00165138,-0.00157872,0.99999875,0,0)"
       y="130.01295"
       x="262.54413"
       height="2.9681053"
       width="2.258111"
       id="stand1"
       style="fill:#000000;stroke:#000000;stroke-width:0.323548;stroke-miterlimit:4;stroke-dasharray:none;stroke-opacity:1" />
    <rect
       transform="matrix(0.99999864,0.00165138,-0.00157872,0.99999875,0,0)"
       style="opacity:0.43;fill:#aaeeff;stroke:#000000;stroke-width:0.323548;stroke-miterlimit:4;stroke-dasharray:none;stroke-opacity:1"
       id="shield"
       width="32.195854"
       height="29.452143"
       x="233.70067"
       y="92.600159"
       onclick="Heyy" />
    <path
       id="whitepowderinmachine"
       style="fill:#ececec;stroke:#000000;stroke-width:0.323548;stroke-miterlimit:4;stroke-dasharray:none;stroke-opacity:1"
       d="m 254.71326,120.1685 c -2.4683,0.26545 -5.29958,0.45334 -7.56165,-0.0373 1.08733,-0.42869 2.34363,-0.91849 3.43097,-1.34719 z" />
    <text
       transform="matrix(1.0839462,0.00178995,-0.0014564,0.9225526,0,0)"
       id="Pisplay1"
       y="138.38843"
       x="222.81129"
       style="font-style:normal;font-weight:normal;font-size:4.84818px;line-height:1.25;font-family:sans-serif;fill:#ffffff;fill-opacity:1;stroke:#000000;stroke-width:0;stroke-miterlimit:4;stroke-dasharray:none;stroke-opacity:1"
       xml:space="preserve"><tspan
         style="font-size:4.84818px;fill:#ffffff;fill-opacity:1;stroke:#000000;stroke-width:0;stroke-miterlimit:4;stroke-dasharray:none;stroke-opacity:1"
         y="138.38843"
         x="222.81129"
         id="tspan977"
         sodipodi:role="line">00:00</tspan></text>
    <path
       sodipodi:nodetypes="ccccc"
       d="m 259.13676,122.5754 -19.26807,-0.16524 -1.17357,-2.37565 22.30897,-0.0127 z"
       style="opacity:1;fill:#c8b7b7;fill-opacity:1;stroke:#000000;stroke-width:0.229845;stroke-linejoin:round;stroke-miterlimit:4;stroke-dasharray:none;stroke-opacity:1;paint-order:markers stroke fill"
       id="rect1253" />
    <text
       xml:space="preserve"
       style="font-style:normal;font-weight:normal;font-size:4.84818px;line-height:1.25;font-family:sans-serif;fill:#ffffff;fill-opacity:1;stroke:#000000;stroke-width:0;stroke-miterlimit:4;stroke-dasharray:none;stroke-opacity:1"
       x="222.97093"
       y="138.45932"
       id="Pisplay2"
       transform="matrix(1.0839462,0.00178995,-0.0014564,0.9225526,0,0)"><tspan
         sodipodi:role="line"
         id="tspan977-2"
         x="222.97093"
         y="138.45932"
         style="font-size:4.84818px;fill:#ffffff;fill-opacity:1;stroke:#000000;stroke-width:0;stroke-miterlimit:4;stroke-dasharray:none;stroke-opacity:1">00.20</tspan></text>
    <path
       sodipodi:nodetypes="sssss"
       d="m 95.673199,79.900292 c 0.18884,-0.06715 1.66711,-1.098378 3.7238,-1.100791 2.056671,-0.0024 4.050081,1.035748 4.239281,1.091439 5.29236,1.557542 -2.1823,1.098984 -4.238971,1.101397 -2.05669,0.0024 -9.026366,0.791581 -3.72411,-1.092045 z"
       style="opacity:1;fill:#ff00ff;fill-opacity:1;stroke:#000000;stroke-width:0.550512;stroke-linejoin:round;stroke-miterlimit:4;stroke-dasharray:none;stroke-opacity:1;paint-order:markers stroke fill"
       id="path1274" />
    <rect
       y="-125.37502"
       x="-111.07571"
       height="25.75802"
       width="1.1519967"
       id="glassrod"
       style="opacity:0.309904;fill:#00ffff;fill-opacity:1;stroke:#000000;stroke-width:0.325502;stroke-linejoin:round;stroke-miterlimit:4;stroke-dasharray:none;stroke-opacity:1;paint-order:markers stroke fill"
       transform="matrix(-0.99999995,3.2426764e-4,-5.0649542e-4,-0.99999987,0,0)" />
    <path
       id="liq3"
       style="opacity:0.153355;fill:#008bff;fill-opacity:1;stroke:#000000;stroke-width:0.199444;stroke-linejoin:round;stroke-miterlimit:4;stroke-dasharray:none;stroke-opacity:1;paint-order:markers stroke fill"
       d="m 120.26225,81.151021 -0.84055,-0.01672 c -0.007,-1.29e-4 -0.13972,-3.010241 -0.14112,-3.184922 l -0.11847,-14.895791 c -0.002,-0.175061 1.39028,-1.457373 1.39028,-1.457373 l 4.67207,-0.172096 c 0,0 -4.90775,0.208749 -5.14239,0.992474 l 0.31809,18.727548 c 0,0 -0.11004,0.161697 -0.12292,-0.05779 z"
       sodipodi:nodetypes="sssscsccss" />
    <path
       sodipodi:nodetypes="ssssssscss"
       d="m 103.9915,79.177573 -9.996438,-9.49e-4 c -0.0895,-4e-6 -0.24811,-0.323398 -0.24773,-0.342175 l 0.0318,-1.589041 c 2.6e-4,-0.01883 0.0721,-0.03368 0.16164,-0.03402 l 11.513028,-0.03853 c 0.0896,-2.36e-4 0.18196,0.03538 0.18192,0.05411 l -0.005,1.949533 c 0,0 -1.38236,0.01758 -1.43696,-0.0064 z"
       style="opacity:0.153355;fill:#0018ff;fill-opacity:1;stroke:none;stroke-width:0.225531;stroke-linejoin:round;stroke-miterlimit:4;stroke-dasharray:none;stroke-opacity:1;paint-order:markers stroke fill"
       id="liq_late" />
    <path
       sodipodi:nodetypes="sssscccccss"
       d="m 83.81306,81.121248 -1.144146,0.195892 c -0.01521,0.0026 1.062175,-3.742571 1.059089,-3.917252 l -0.261147,-14.89579 c -0.0031,-0.175084 -6.169112,-6.90967 -0.804532,-6.347246 L 90.39745,54.11888 c 2.761677,-0.533051 -8.718022,2.395539 -7.03947,4.65241 0.79206,0.955432 3.357007,2.148266 3.140772,3.237554 l 0.169647,14.876916 c 0,0 -1.305002,2.822811 -1.192274,3.013266 z"
       style="opacity:0.153355;fill:#008bff;fill-opacity:1;stroke:#000000;stroke-width:0.296114;stroke-linejoin:round;stroke-miterlimit:4;stroke-dasharray:none;stroke-opacity:1;paint-order:markers stroke fill"
       id="spill1" />
    <path
       id="spill3"
       style="opacity:0.153355;fill:#008bff;fill-opacity:1;stroke:#000000;stroke-width:0.296114;stroke-linejoin:round;stroke-miterlimit:4;stroke-dasharray:none;stroke-opacity:1;paint-order:markers stroke fill"
       d="m 64.03727,81.379676 -1.144146,0.195892 c -0.01521,0.0026 1.062175,-3.742572 1.059089,-3.917253 l -0.261147,-14.89579 c -0.0031,-0.175084 -6.169112,-6.90967 -0.804532,-6.347246 l 7.735126,-2.037972 c 2.761677,-0.533051 -8.718022,2.395539 -7.03947,4.65241 0.79206,0.955432 3.357007,2.148266 3.140772,3.237554 l 0.169647,14.876916 c 0,0 -1.305002,2.822811 -1.192274,3.013266 z"
       sodipodi:nodetypes="sssscccccss" />
    <path
       id="spill2"
       style="opacity:0.153355;fill:#008bff;fill-opacity:1;stroke:#000000;stroke-width:0.296114;stroke-linejoin:round;stroke-miterlimit:4;stroke-dasharray:none;stroke-opacity:1;paint-order:markers stroke fill"
       d="m 24.191631,80.994722 -1.144146,0.195892 c -0.01521,0.0026 1.062175,-3.742572 1.05909,-3.917253 l -0.261148,-14.89579 c -0.0031,-0.175084 -6.169112,-6.90967 -0.804532,-6.347246 l 7.735127,-2.037972 c 2.761677,-0.533051 -8.718023,2.395539 -7.039471,4.65241 0.79206,0.955432 3.357007,2.148266 3.140772,3.237554 l 0.169647,14.876916 c 0,0 -1.305002,2.822811 -1.192274,3.013266 z"
       sodipodi:nodetypes="sssscccccss" />
  </g>
</svg>
